<svg width="73" height="73" viewBox="0 0 73 73" fill="none" xmlns="http://www.w3.org/2000/svg">
<path d="M19.1895 44.5941V19.1391C19.1895 18.0546 19.5573 17.1455 20.2929 16.4118C21.0285 15.6781 21.94 15.3113 23.0274 15.3113H26.8653C27.9527 15.3113 28.8642 15.6781 29.5998 16.4118C30.3354 17.1455 30.7032 18.0546 30.7032 19.1391V44.5941L30.2234 44.1156C28.7522 42.7121 26.9932 42.0103 24.9463 42.0103C22.8994 42.0103 21.1404 42.7121 19.6692 44.1156L19.1895 44.5941ZM38.3789 50.3359V3.82782C38.3789 2.74327 38.7467 1.83416 39.4823 1.1005C40.2179 0.366833 41.1294 0 42.2168 0H46.0547C47.1421 0 48.0536 0.366833 48.7892 1.1005C49.5248 1.83416 49.8926 2.74327 49.8926 3.82782V38.8524L38.3789 50.3359ZM0 63.5418V34.4504C0 33.3658 0.367798 32.4567 1.10339 31.7231C1.83899 30.9894 2.75049 30.6226 3.83789 30.6226H7.67579C8.76319 30.6226 9.67469 30.9894 10.4103 31.7231C11.1459 32.4567 11.5137 33.3658 11.5137 34.4504V52.0584L0 63.5418ZM9.21095 72.92C7.54786 72.92 6.3805 72.1385 5.70887 70.5755C5.03724 69.0124 5.30909 67.6248 6.52442 66.4127L22.2598 50.7186C22.9634 50.0169 23.8109 49.6341 24.8024 49.5703C25.7938 49.5065 26.6734 49.8255 27.4409 50.5272L38.3789 59.9054L59.8712 38.4696H57.5684C56.481 38.4696 55.5695 38.1028 54.8339 37.3691C54.0983 36.6354 53.7305 35.7263 53.7305 34.6418C53.7305 33.5572 54.0983 32.6481 54.8339 31.9145C55.5695 31.1808 56.481 30.814 57.5684 30.814H69.0821C70.1695 30.814 71.081 31.1808 71.8166 31.9145C72.5522 32.6481 72.92 33.5572 72.92 34.6418V46.1252C72.92 47.2098 72.5522 48.1189 71.8166 48.8526C71.081 49.5862 70.1695 49.9531 69.0821 49.9531C67.9947 49.9531 67.0832 49.5862 66.3476 48.8526C65.612 48.1189 65.2442 47.2098 65.2442 46.1252V43.8286L41.2574 67.7524C40.5538 68.4542 39.7062 68.837 38.7148 68.9008C37.7233 68.9646 36.8438 68.6456 36.0762 67.9438L25.1382 58.5657L11.8975 71.7717C11.5776 72.0906 11.1779 72.3618 10.6981 72.5851C10.2184 72.8083 9.72267 72.92 9.21095 72.92Z" fill="#BB8910"/>
</svg>
