<svg width="57" height="57" viewBox="0 0 57 57" fill="none" xmlns="http://www.w3.org/2000/svg">
<path d="M15 34.8583V14.9606C15 14.1129 15.2875 13.4022 15.8625 12.8287C16.4375 12.2552 17.15 11.9685 18 11.9685H21C21.85 11.9685 22.5625 12.2552 23.1375 12.8287C23.7125 13.4022 24 14.1129 24 14.9606V34.8583L23.625 34.4843C22.475 33.3871 21.1 32.8386 19.5 32.8386C17.9 32.8386 16.525 33.3871 15.375 34.4843L15 34.8583ZM30 39.3465V2.99213C30 2.14436 30.2875 1.43373 30.8625 0.860236C31.4375 0.286745 32.15 0 33 0H36C36.85 0 37.5625 0.286745 38.1375 0.860236C38.7125 1.43373 39 2.14436 39 2.99213V30.3701L30 39.3465ZM0 49.6693V26.9291C0 26.0814 0.2875 25.3707 0.8625 24.7972C1.4375 24.2238 2.15 23.937 3 23.937H6C6.85 23.937 7.5625 24.2238 8.1375 24.7972C8.7125 25.3707 9 26.0814 9 26.9291V40.6929L0 49.6693ZM7.2 57C5.9 57 4.9875 56.3891 4.4625 55.1673C3.9375 53.9455 4.15 52.8609 5.1 51.9134L17.4 39.6457C17.95 39.0971 18.6125 38.7979 19.3875 38.748C20.1625 38.6982 20.85 38.9475 21.45 39.4961L30 46.8268L46.8 30.0709H45C44.15 30.0709 43.4375 29.7841 42.8625 29.2106C42.2875 28.6371 42 27.9265 42 27.0787C42 26.231 42.2875 25.5203 42.8625 24.9469C43.4375 24.3734 44.15 24.0866 45 24.0866H54C54.85 24.0866 55.5625 24.3734 56.1375 24.9469C56.7125 25.5203 57 26.231 57 27.0787V36.0551C57 36.9029 56.7125 37.6135 56.1375 38.187C55.5625 38.7605 54.85 39.0472 54 39.0472C53.15 39.0472 52.4375 38.7605 51.8625 38.187C51.2875 37.6135 51 36.9029 51 36.0551V34.2598L32.25 52.9606C31.7 53.5092 31.0375 53.8084 30.2625 53.8583C29.4875 53.9081 28.8 53.6588 28.2 53.1102L19.65 45.7795L9.3 56.1024C9.05 56.3517 8.7375 56.5636 8.3625 56.7382C7.9875 56.9127 7.6 57 7.2 57Z" fill="#BB8910"/>
</svg>
