<svg width="56" height="57" viewBox="0 0 56 57" fill="none" xmlns="http://www.w3.org/2000/svg">
<path d="M41.2632 57C37.186 57 33.711 55.5755 30.8383 52.7265C27.9636 49.8755 26.5263 46.4282 26.5263 42.3846C26.5263 38.341 27.9636 34.8937 30.8383 32.0428C33.711 29.1937 37.186 27.7692 41.2632 27.7692C45.3404 27.7692 48.8163 29.1937 51.6909 32.0428C54.5636 34.8937 56 38.341 56 42.3846C56 46.4282 54.5636 49.8755 51.6909 52.7265C48.8163 55.5755 45.3404 57 41.2632 57ZM39.7895 43.8462V49.6923C39.7895 50.0821 39.9368 50.4231 40.2316 50.7154C40.5263 51.0077 40.8702 51.1538 41.2632 51.1538C41.6561 51.1538 42 51.0077 42.2947 50.7154C42.5895 50.4231 42.7368 50.0821 42.7368 49.6923V43.8462H48.6316C49.0246 43.8462 49.3684 43.7 49.6632 43.4077C49.9579 43.1154 50.1053 42.7744 50.1053 42.3846C50.1053 41.9949 49.9579 41.6538 49.6632 41.3615C49.3684 41.0692 49.0246 40.9231 48.6316 40.9231H42.7368V35.0769C42.7368 34.6872 42.5895 34.3462 42.2947 34.0538C42 33.7615 41.6561 33.6154 41.2632 33.6154C40.8702 33.6154 40.5263 33.7615 40.2316 34.0538C39.9368 34.3462 39.7895 34.6872 39.7895 35.0769V40.9231H33.8947C33.5018 40.9231 33.1579 41.0692 32.8632 41.3615C32.5684 41.6538 32.4211 41.9949 32.4211 42.3846C32.4211 42.7744 32.5684 43.1154 32.8632 43.4077C33.1579 43.7 33.5018 43.8462 33.8947 43.8462H39.7895ZM22.6211 51.1538H5.89474C4.27368 51.1538 2.88646 50.5819 1.73305 49.438C0.577684 48.2922 0 46.9154 0 45.3077V19C0 18.0744 0.209263 17.1974 0.627789 16.3692C1.04435 15.541 1.62105 14.859 2.3579 14.3231L20.0421 1.16923C21.0737 0.389743 22.2526 0 23.5789 0C24.9053 0 26.0842 0.389743 27.1158 1.16923L44.8 14.3231C45.5368 14.859 46.1145 15.541 46.5331 16.3692C46.9496 17.1974 47.1579 18.0744 47.1579 19V22.8C46.2246 22.5077 45.2667 22.2885 44.2842 22.1423C43.3018 21.9962 42.2947 21.9231 41.2632 21.9231C35.5158 21.9231 30.6408 23.9078 26.6383 27.8774C22.6338 31.8489 20.6316 36.6846 20.6316 42.3846C20.6316 43.8949 20.7917 45.3934 21.112 46.8803C21.4303 48.3652 21.9333 49.7897 22.6211 51.1538Z" fill="#BB8910"/>
</svg>
