<svg xmlns="http://www.w3.org/2000/svg" xmlns:xlink="http://www.w3.org/1999/xlink" viewBox="0 0 48 48"><defs><radialGradient id="Dégradé_sans_nom_117" cx="20.83" cy="36.76" r="3.04" gradientTransform="translate(0.29 -34.92) scale(1.21)" gradientUnits="userSpaceOnUse"><stop offset="0" stop-color="#fff"/><stop offset="0.23" stop-color="#b1b1b1"/><stop offset="0.38" stop-color="#9d9ea1"/><stop offset="0.57" stop-color="#e4e5e6"/><stop offset="0.7" stop-color="#fff"/><stop offset="0.92" stop-color="#9d9ea1"/></radialGradient><radialGradient id="Dégradé_sans_nom_5" cx="21.67" cy="37.38" r="1.53" gradientTransform="translate(0.29 -34.92) scale(1.21)" gradientUnits="userSpaceOnUse"><stop offset="0" stop-color="#ba8924"/><stop offset="1" stop-color="#ba8924"/></radialGradient><radialGradient id="radial-gradient" cx="21.66" cy="37.38" r="0.97" gradientTransform="translate(0.29 -34.92) scale(1.21)" gradientUnits="userSpaceOnUse"><stop offset="0" stop-color="#3d6c6c"/><stop offset="0.5" stop-color="#304757"/><stop offset="1" stop-color="#242644"/></radialGradient><radialGradient id="Dégradé_sans_nom_6" cx="21.66" cy="37.38" r="0.82" gradientTransform="translate(0.29 -34.92) scale(1.21)" gradientUnits="userSpaceOnUse"><stop offset="0" stop-color="#3e3e3d"/><stop offset="1" stop-color="#3e3e3d"/></radialGradient><radialGradient id="radial-gradient-2" cx="22.14" cy="37.98" r="0.83" xlink:href="#radial-gradient"/></defs><g style="isolation:isolate"><g id="Calque_2" data-name="Calque 2"><g id="OBJECTS"><rect width="48" height="48" style="fill:#fff"/><path d="M7.12,41.13V36.51h.65l1.48,2.34a12.25,12.25,0,0,1,.83,1.5h0A18.6,18.6,0,0,1,10,38.45V36.51h.56v4.62H10L8.52,38.79a15.07,15.07,0,0,1-.86-1.54h0c0,.59.05,1.14.05,1.91v2Z"/><path d="M11.63,36.58a7.79,7.79,0,0,1,1.27-.1,2.7,2.7,0,0,1,1.87.57,2.15,2.15,0,0,1,.65,1.66,2.46,2.46,0,0,1-.67,1.8,2.84,2.84,0,0,1-2,.66c-.42,0-.78,0-1.08-.05Zm.59,4.08a3.64,3.64,0,0,0,.61,0,1.77,1.77,0,0,0,2-2A1.64,1.64,0,0,0,12.92,37a3.77,3.77,0,0,0-.7.06Z"/><path d="M18.58,39h-1.8v1.66h2v.5H16.19V36.51h2.49V37h-1.9v1.46h1.8Z"/><path d="M20.37,41.13,19.2,36.51h.63l.55,2.34c.13.58.26,1.15.34,1.6h0c.08-.46.22-1,.38-1.61l.62-2.33h.62l.56,2.35a14.76,14.76,0,0,1,.32,1.58h0c.09-.51.22-1,.37-1.6l.61-2.33h.61l-1.31,4.62H22.9l-.58-2.4a14.29,14.29,0,0,1-.3-1.51h0c-.09.46-.19.91-.36,1.51L21,41.13Z"/><path d="M25.76,39.68l-.48,1.45h-.61l1.57-4.62H27l1.57,4.62h-.64l-.49-1.45Zm1.52-.47-.45-1.33a6.39,6.39,0,0,1-.24-.84h0c-.07.28-.14.56-.23.84l-.45,1.33Z"/><path d="M29.14,40.44a2,2,0,0,0,1,.28c.78,0,1-.49,1-.86,0-.63-.57-.89-1.15-.89h-.34v-.46H30c.44,0,1-.22,1-.75,0-.36-.22-.67-.78-.67a1.71,1.71,0,0,0-.89.29L29.14,37a2.08,2.08,0,0,1,1.17-.35c.88,0,1.27.52,1.27,1.06a1.1,1.1,0,0,1-.82,1.05v0a1.15,1.15,0,0,1,1,1.14c0,.71-.55,1.34-1.62,1.34a2.32,2.32,0,0,1-1.16-.3Z"/><path d="M35.05,37.1a2.64,2.64,0,0,0-.46,0,1.81,1.81,0,0,0-1.54,1.58h0a1.36,1.36,0,0,1,2.42.93A1.5,1.5,0,0,1,34,41.21c-1,0-1.58-.74-1.58-1.9a2.84,2.84,0,0,1,.75-2,2.47,2.47,0,0,1,1.43-.66l.44,0Zm-.17,2.57a.91.91,0,0,0-.92-1,1,1,0,0,0-.87.55.54.54,0,0,0-.06.27c0,.73.35,1.27,1,1.27S34.88,40.31,34.88,39.67Z"/><path d="M39,38.86c0,1.51-.57,2.35-1.55,2.35S36,40.39,36,38.92s.64-2.32,1.54-2.32S39,37.44,39,38.86Zm-2.42.07c0,1.15.35,1.81.9,1.81s.91-.72.91-1.86-.28-1.81-.9-1.81S36.56,37.71,36.56,38.93Z"/><path d="M41.23,37.33a.91.91,0,0,1-.91.92.88.88,0,0,1-.9-.89.9.9,0,0,1,.91-.92A.87.87,0,0,1,41.23,37.33Zm-1.44,0a.54.54,0,0,0,.53.57.56.56,0,0,0,.54-.59.54.54,0,0,0-.54-.58A.56.56,0,0,0,39.79,37.36Z"/><path d="M8.57,43.1h.16v1.17h.56v.14H8.57Z" style="fill:#bb890b"/><path d="M9.81,44l-.14.41H9.5l.44-1.31h.2l.45,1.31h-.18L10.27,44Zm.42-.14-.12-.37c0-.09,0-.16-.07-.24h0a2.1,2.1,0,0,1-.06.24l-.13.37Z" style="fill:#bb890b"/><path d="M11.42,43.1h.17v1.17h.56v.14h-.73Z" style="fill:#bb890b"/><path d="M13.49,43.74a.61.61,0,0,1-.61.69.6.6,0,0,1-.59-.66.62.62,0,0,1,.61-.69A.59.59,0,0,1,13.49,43.74Zm-1,0c0,.28.15.53.41.53s.42-.25.42-.54-.14-.53-.42-.53S12.48,43.47,12.48,43.76Z" style="fill:#bb890b"/><path d="M14.73,44.36a.66.66,0,0,1-.34.07.62.62,0,0,1-.65-.66.66.66,0,0,1,.69-.69.63.63,0,0,1,.31.06l-.05.14a.48.48,0,0,0-.26-.06.49.49,0,0,0-.51.54.47.47,0,0,0,.5.52.74.74,0,0,0,.28-.05Z" style="fill:#bb890b"/><path d="M15.28,44l-.14.41H15l.44-1.31h.2l.45,1.31h-.18L15.74,44Zm.42-.14-.12-.37c0-.09-.05-.16-.07-.24h0a2.1,2.1,0,0,1-.06.24l-.13.37Z" style="fill:#bb890b"/><path d="M16.46,43.24h-.39V43.1h1v.14h-.4v1.17h-.17Z" style="fill:#bb890b"/><path d="M17.46,43.1v1.31h-.17V43.1Z" style="fill:#bb890b"/><path d="M19,43.74a.62.62,0,0,1-.61.69.6.6,0,0,1-.59-.66.62.62,0,0,1,.61-.69A.59.59,0,0,1,19,43.74Zm-1,0c0,.28.15.53.42.53s.42-.25.42-.54-.14-.53-.42-.53S18,43.47,18,43.76Z" style="fill:#bb890b"/><path d="M19.32,44.41V43.1h.18l.42.66a3.79,3.79,0,0,1,.24.43h0a4.44,4.44,0,0,1,0-.53V43.1h.16v1.31h-.17l-.42-.67a4.63,4.63,0,0,1-.24-.43h0c0,.16,0,.32,0,.54v.56Z" style="fill:#bb890b"/><path d="M21.23,43.12a1.61,1.61,0,0,1,.33,0,.48.48,0,0,1,.37.11.31.31,0,0,1,.11.25.34.34,0,0,1-.25.33h0a.34.34,0,0,1,.19.27,2.79,2.79,0,0,0,.1.36h-.17a2.11,2.11,0,0,1-.09-.32c0-.18-.11-.24-.26-.25H21.4v.57h-.17Zm.17.59h.17c.18,0,.3-.1.3-.24s-.12-.25-.3-.25l-.17,0Z" style="fill:#bb890b"/><path d="M23.06,43.79h-.5v.48h.56v.14h-.73V43.1h.7v.14h-.53v.41h.5Z" style="fill:#bb890b"/><path d="M23.62,43.1v1.31h-.16V43.1Z" style="fill:#bb890b"/><path d="M24,44.41V43.1h.19l.42.66a3.65,3.65,0,0,1,.23.43h0c0-.17,0-.33,0-.53V43.1H25v1.31h-.17l-.41-.67a4.77,4.77,0,0,1-.25-.43h0c0,.16,0,.32,0,.54v.56Z" style="fill:#bb890b"/><path d="M25.71,44.41l-.43-1.31h.18l.21.64.14.49h0q.06-.23.15-.48l.22-.65h.18l-.47,1.31Z" style="fill:#bb890b"/><path d="M27.29,43.79h-.51v.48h.57v.14h-.73V43.1h.7v.14h-.54v.41h.51Z" style="fill:#bb890b"/><path d="M27.68,44.41V43.1h.19l.42.66a3.65,3.65,0,0,1,.23.43h0c0-.17,0-.33,0-.53V43.1h.16v1.31h-.17l-.41-.67a4.77,4.77,0,0,1-.25-.43h0c0,.16,0,.32,0,.54v.56Z" style="fill:#bb890b"/><path d="M29.32,43.24h-.4V43.1h1v.14h-.4v1.17h-.17Z" style="fill:#bb890b"/><path d="M30.82,43.79h-.5v.48h.56v.14h-.73V43.1h.7v.14h-.53v.41h.5Z" style="fill:#bb890b"/><path d="M31.89,43.79h-.51v.48H32v.14h-.73V43.1h.7v.14h-.54v.41h.51Z" style="fill:#bb890b"/><path d="M33.48,43.79H33v.48h.56v.14h-.73V43.1h.7v.14H33v.41h.5Z" style="fill:#bb890b"/><path d="M33.88,44.41V43.1h.18l.42.66a3.65,3.65,0,0,1,.23.43h0a4.44,4.44,0,0,1,0-.53V43.1h.16v1.31h-.17l-.42-.67a3.09,3.09,0,0,1-.24-.43h0c0,.16,0,.32,0,.54v.56Z" style="fill:#bb890b"/><path d="M35.77,44.21a.58.58,0,0,0,.28.08c.22,0,.29-.14.28-.24s-.16-.26-.32-.26h-.1v-.12H36c.12,0,.28-.07.28-.22s-.06-.19-.22-.19a.44.44,0,0,0-.25.09l0-.13a.62.62,0,0,1,.33-.09c.25,0,.36.14.36.3a.3.3,0,0,1-.23.29h0a.32.32,0,0,1,.28.32c0,.2-.16.38-.46.38a.68.68,0,0,1-.33-.09Z" style="fill:#bb890b"/><path d="M37.56,43.27h-.13a.51.51,0,0,0-.44.44h0a.36.36,0,0,1,.3-.14.37.37,0,0,1,.38.4.42.42,0,0,1-.42.45c-.27,0-.44-.21-.44-.54a.78.78,0,0,1,.21-.57.67.67,0,0,1,.4-.18h.13Zm-.05.72a.25.25,0,0,0-.26-.28.28.28,0,0,0-.25.15.15.15,0,0,0,0,.08c0,.2.1.36.28.36S37.51,44.17,37.51,44Z" style="fill:#bb890b"/><path d="M38.78,43.76c0,.43-.16.67-.44.67s-.41-.23-.41-.65.18-.65.43-.65S38.78,43.36,38.78,43.76Zm-.68,0c0,.33.1.52.25.52s.26-.21.26-.53-.08-.51-.25-.51S38.1,43.44,38.1,43.78Z" style="fill:#bb890b"/><path d="M39.53,43.33a.25.25,0,0,1-.26.26.24.24,0,0,1-.25-.25.25.25,0,0,1,.26-.26A.24.24,0,0,1,39.53,43.33Zm-.4,0a.15.15,0,0,0,.15.16.16.16,0,0,0,.15-.17.15.15,0,0,0-.15-.16A.16.16,0,0,0,39.13,43.34Z" style="fill:#bb890b"/><path d="M26.53,12.21a1.89,1.89,0,0,1-1.61-.9h0a1.88,1.88,0,0,1,0-1.84h0a1.88,1.88,0,0,1,1.58-.94h0a1.89,1.89,0,0,1,1.61,2.79h0A1.89,1.89,0,0,1,26.53,12.21ZM25.3,11.08a1.49,1.49,0,0,0,1.23.68,1.46,1.46,0,0,0,1.22-.68,1.43,1.43,0,0,0,0-1.4,1.4,1.4,0,0,0-2.43,1.4Z" style="fill:url(#Dégradé_sans_nom_117)"/><path d="M26.53,11.91a1.6,1.6,0,0,1-1.36-.75h0a1.61,1.61,0,0,1,0-1.55h0a1.61,1.61,0,0,1,1.33-.8h0a1.6,1.6,0,0,1,1.35,2.35h0A1.58,1.58,0,0,1,26.53,11.91Z" style="fill:url(#Dégradé_sans_nom_5)"/><path d="M25.5,11a1.2,1.2,0,0,0,1,.57,1.18,1.18,0,0,0,0-2.35,1.24,1.24,0,0,0-1,.61A1.19,1.19,0,0,0,25.5,11Z" style="mix-blend-mode:multiply;opacity:0.6000000000000001;fill:url(#radial-gradient)"/><path d="M26.53,11.2a.89.89,0,0,1-.73-.41h0a.85.85,0,0,1,0-.83h0a.86.86,0,0,1,.72-.43h0a.86.86,0,0,1,.72.43.85.85,0,0,1,0,.83h0A.89.89,0,0,1,26.53,11.2Z" style="fill:url(#Dégradé_sans_nom_6)"/><path d="M26.53,10.85a.5.5,0,0,1-.43-.24h0a.5.5,0,0,1,0-.49h0a.53.53,0,0,1,.43-.25h0a.5.5,0,0,1,.43.75h0A.5.5,0,0,1,26.53,10.85Z" style="mix-blend-mode:multiply;opacity:0.6000000000000001;fill:url(#radial-gradient-2)"/><path d="M26.21,10.26a.19.19,0,0,1-.17-.1h0a.18.18,0,0,1,0-.2h0a.21.21,0,0,1,.17-.1h0a.19.19,0,0,1,.17.1.18.18,0,0,1,0,.2h0A.19.19,0,0,1,26.21,10.26Z" style="fill:#fff;mix-blend-mode:screen"/><path d="M28.9,9.89c.64,0,1.08.1,1.17.36.17.53-1.13,1.44-2.91,2s-3.36.64-3.54.12c-.09-.29.26-.7.89-1.1" style="fill:none;stroke:#bb890b;stroke-miterlimit:10;stroke-width:0.25px"/><polygon points="28.72 9.89 29.17 9.63 29.15 10.19 28.72 9.89 29.17 9.63 29.15 10.19 28.72 9.89" style="fill:#bb890b;stroke:#bb890b;stroke-miterlimit:10;stroke-width:0.25px"/><polygon points="18.52 29.07 17.2 26.78 16.06 24.81 15.21 23.33 13.19 26.84 14.04 28.31 15.18 30.28 16.5 32.57 33.43 32.57 35.45 29.07 31.41 29.07 18.52 29.07"/><path d="M12.08,17.91,18.52,6.75H31.41l.85,1.49h0a4.79,4.79,0,0,1,.42.89l0-.09,1.13,2h0l.86,1.48,2-3.5-.85-1.48h0l-1.14-2h0l-.18-.32h0l-1.13-2H16.5L8,17.91l4,7,2-3.5Z"/><polygon points="37.94 10.84 35.92 14.34 35.92 14.34 35.92 14.34 37.94 17.84 39.96 14.34 37.94 10.84"/><polygon points="14.04 28.31 14.04 28.31 14.07 28.37 12.3 28.37 11.17 30.34 15.18 30.34 15.18 30.28 14.04 28.31" style="fill:#805d08"/><path d="M21.45,19.41a2.64,2.64,0,0,0,0-2.65l-.37-.65-5,8.7,1.14,2Z" style="fill:#805d08"/><path d="M28.47,16.41a2.69,2.69,0,0,0,0,2.66l.06.09.31.55,5-8.7L32.73,9l0,.09-2.33,4Z" style="fill:#805d08"/><polygon points="34.75 5.54 35.89 7.51 35.89 7.51 35.89 7.51 35.85 7.46 37.62 7.46 38.76 5.49 34.75 5.49 34.75 5.54 34.75 5.54 34.75 5.54" style="fill:#805d08"/><polygon points="13.19 26.84 13.19 26.84 13.19 26.84 15.21 23.33 21.09 13.16 28.84 26.6 29.82 24.91 37.88 10.96 39.9 7.46 39.9 7.46 38.76 5.49 38.76 5.49 37.62 7.46 36.74 8.99 36.74 8.99 28.84 22.66 28.84 22.66 21.09 9.22 14.07 21.36 12.05 24.86 12.05 24.86 12.05 24.86 10.03 28.37 10.03 28.37 11.17 30.34 11.17 30.34 12.3 28.37 13.19 26.84" style="fill:#bb890b"/></g></g></g></svg>